<svg width="68" height="21" fill="none" xmlns="http://www.w3.org/2000/svg"><path d="M13.4 0v20H10V5.8L9 7.2 6.8 10h-.2L4.4 7.2l-1-1.4V20H0V0h3.3l3.4 4.3L10.1 0h3.3zM8.3 10zm.1 0h-.1.1zm29.8-4.4l-9.1 6.7 2.1 2.9 9.1-6.7-2-2.9z" fill="#0AD9C6"/><path d="M26.7 3a7 7 0 100 14 7 7 0 000-14zm0 10.3a3.2 3.2 0 110-6.5 3.2 3.2 0 010 6.5zM43.6 3a7 7 0 100 14 7 7 0 000-14zm0 10.3a3.2 3.2 0 110-6.5 3.2 3.2 0 010 6.5zM67.6.2v20h-3.3V10l-2.9-2.7-2-2v15H56V.3h3.3l4 3.8 1 1V.2h3.3z" fill="#0AD9C6"/><path fill="#0AD9C6" d="M37 3h6v4h-6z"/></svg>